<?xml version="1.0" standalone="no"?>
<!DOCTYPE svg PUBLIC "-//W3C//DTD SVG 1.1//EN" "http://www.w3.org/Graphics/SVG/1.1/DTD/svg11.dtd" >
<!--
2013-9-30: Created.
-->

<svg data-v-2cb57da0="" version="1.0" xmlns="http://www.w3.org/2000/svg" xmlns:xlink="http://www.w3.org/1999/xlink" width="100%" height="100%" viewBox="0 0 240.000000 70.000000" preserveAspectRatio="xMidYMid meet" color-interpolation-filters="sRGB" style="margin: auto;"><rect data-v-2cb57da0="" x="0" y="0" width="100%" height="100%" fill="rgba(254,255,255,0)" fill-opacity="1" class="background"></rect> <rect data-v-2cb57da0="" x="0" y="0" width="100%" height="100%" fill="url(#watermark)" fill-opacity="1" class="watermarklayer"></rect> <g data-v-2cb57da0="" fill="#333" class="iconlettersvg-g iconlettersvg" transform="translate(10,10.0000000000003)"><g><g class="tp-name"><g transform="scale(1)"><g transform="translate(0, 0)"><g class="name-imagesvg"><g><rect fill="#333" fill-opacity="0" stroke-width="2" x="0" y="0" width="38.24999708175682" height="45" class="image-rect"></rect> <svg x="0" y="0" width="38.24999708175682" height="45" filtersec="colorsb6124540028" class="image-svg-svg primary" style="overflow: visible;"><svg xmlns="http://www.w3.org/2000/svg" viewBox="0 0 85 100"><title>资源 37</title><path d="M75 0a10 10 0 0 0-7.76 3.69l-65 80A10 10 0 0 0 0 90a10 10 0 0 0 10 10 10 10 0 0 0 7.76-3.69l65-80A10 10 0 0 0 85 10 10 10 0 0 0 75 0zM36.35 0H10A10 10 0 0 0 0 10a10 10 0 0 0 10 10h26.35a10 10 0 0 0 7.76-3.69A10 10 0 0 0 36.35 0z" fill="#df5bd3"></path><path d="M48.65 100H75a10 10 0 0 0 10-10 10 10 0 0 0-10-10H48.65a10 10 0 0 0-7.76 3.69A10 10 0 0 0 48.65 100z" fill="#7e5bf6"></path></svg></svg> <!----></g></g></g><g transform="translate(38.24999708175682, 0)"><g class="name-imagesvg"><g><rect fill="#333" fill-opacity="0" stroke-width="2" x="0" y="0" width="38.24999708175682" height="45" class="image-rect"></rect> <svg x="0" y="0" width="38.24999708175682" height="45" filtersec="colorsb4682955469" class="image-svg-svg primary" style="overflow: visible;"><svg xmlns="http://www.w3.org/2000/svg" viewBox="0 0 85 100"><title>资源 32</title><path d="M65 10v47.5A22.5 22.5 0 0 1 42.5 80 22.5 22.5 0 0 1 20 57.5V10A10 10 0 0 0 10 0 10 10 0 0 0 0 10v47.5A42.5 42.5 0 0 0 42.5 100 42.5 42.5 0 0 0 85 57.5V10A10 10 0 0 0 75 0a10 10 0 0 0-10 10z" fill="#009dda"></path></svg></svg> <!----></g></g></g><g transform="translate(76.49999416351363, 0)"><g class="name-imagesvg"><g><rect fill="#333" fill-opacity="0" stroke-width="2" x="0" y="0" width="9" height="45" class="image-rect"></rect> <svg x="0" y="0" width="9" height="45" filtersec="colorsb9026164386" class="image-svg-svg primary" style="overflow: visible;"><svg xmlns="http://www.w3.org/2000/svg" viewBox="0 0 20 100"><title>资源 52</title><path d="M10 100A10 10 0 0 1 0 90V10A10 10 0 0 1 10 0a10 10 0 0 1 10 10v80a10 10 0 0 1-10 10z" fill="#009dda"></path></svg></svg> <!----></g></g></g><g transform="translate(85.49999416351363, 0)"><g class="name-imagesvg"><g><rect fill="#333" fill-opacity="0" stroke-width="2" x="0" y="0" width="42.75" height="45" class="image-rect"></rect> <svg x="0" y="0" width="42.75" height="45" filtersec="colorsb8099981532" class="image-svg-svg primary" style="overflow: visible;"><svg xmlns="http://www.w3.org/2000/svg" viewBox="0 0 95 100"><title>资源 43</title><path d="M10 100A10 10 0 0 1 0 90V40a10 10 0 0 1 10-10 10 10 0 0 1 10 10v50a10 10 0 0 1-10 10z" fill="#df5bd3"></path><path d="M0 10a10 10 0 0 0 10 10h35a30 30 0 0 1 30 30 30 30 0 0 1-30 30h-5a10 10 0 0 0-10 10 10 10 0 0 0 10 10h5a50 50 0 0 0 50-50A50 50 0 0 0 45 0H10A10 10 0 0 0 0 10z" fill="#7e5bf6"></path></svg></svg> <!----></g></g></g><g transform="translate(128.24999416351363, 0)"><g class="name-imagesvg"><g><rect fill="#333" fill-opacity="0" stroke-width="2" x="0" y="0" width="47.25004119873047" height="45" class="image-rect"></rect> <svg x="0" y="0" width="47.25004119873047" height="45" filtersec="colorsb6749006557" class="image-svg-svg primary" style="overflow: visible;"><svg xmlns="http://www.w3.org/2000/svg" viewBox="0 0 105 100"><title>资源 42</title><path d="M52.5 0a10 10 0 0 0-10 10 9.94 9.94 0 0 0 1.17 4.69l42.5 80A10 10 0 0 0 95 100a10 10 0 0 0 10-10 9.94 9.94 0 0 0-1.17-4.69l-42.5-80A10 10 0 0 0 52.5 0z" fill="#df5bd3"></path><path d="M53.06 65h-1.12a10 10 0 0 0-8.83 5.31A10 10 0 0 0 51.94 85h1.12a10 10 0 0 0 8.83-14.69A10 10 0 0 0 53.06 65z" fill="#7e5bf6"></path><path d="M26.68 37.28l-25.51 48A9.94 9.94 0 0 0 0 90a10 10 0 0 0 10 10 10 10 0 0 0 8.83-5.31l25.52-48a10 10 0 0 0 0-9.38 10 10 0 0 0-17.67-.03z" fill="#df5bd3"></path></svg></svg> <!----></g></g></g><g transform="translate(175.5000353622441, 0)"><g class="name-imagesvg"><g><rect fill="#333" fill-opacity="0" stroke-width="2" x="0" y="0" width="38.25" height="45" class="image-rect"></rect> <svg x="0" y="0" width="38.25" height="45" filtersec="colorsb1563073506" class="image-svg-svg primary" style="overflow: visible;"><svg xmlns="http://www.w3.org/2000/svg" viewBox="0 0 85 100"><title>资源 31</title><path d="M10 100A10 10 0 0 1 0 90V40a10 10 0 0 1 10-10 10 10 0 0 1 10 10v50a10 10 0 0 1-10 10z" fill="#009dda"></path><path d="M0 10a10 10 0 0 0 10 10h42.5A12.5 12.5 0 0 1 65 32.5 12.5 12.5 0 0 1 52.5 45H40a10 10 0 0 0-10 10 10 10 0 0 0 10 10h12.5A32.5 32.5 0 0 0 85 32.5 32.5 32.5 0 0 0 52.5 0H10A10 10 0 0 0 0 10z" fill="#7e5bf6"></path></svg></svg> <!----></g></g></g></g></g></g> <!----></g><defs v-gra="od"></defs></svg>

